<?xml version="1.0" encoding="iso-8859-1"?>
<!-- Generator: Adobe Illustrator 19.0.0, SVG Export Plug-In . SVG Version: 6.00 Build 0)  -->
<svg version="1.1" id="Layer_1" xmlns="http://www.w3.org/2000/svg" xmlns:xlink="http://www.w3.org/1999/xlink" x="0px" y="0px"
	 viewBox="0 0 512 512" style="enable-background:new 0 0 512 512;" xml:space="preserve">
<g transform="translate(1 1)">
	<polygon style="fill:#E2E3E5;" points="233.305,476.288 476.288,476.288 476.288,33.712 233.305,33.712 	"/>
	<polygon style="fill:#FFFFFF;" points="7.678,476.288 250.661,476.288 250.661,33.712 7.678,33.712 	"/>
	<polygon style="fill:#CCCCCC;" points="207.271,476.288 450.254,476.288 450.254,33.712 207.271,33.712 	"/>
	<polygon style="fill:#E2E3E5;" points="33.712,476.288 424.22,476.288 424.22,33.712 33.712,33.712 	"/>
	<g>
		<path style="fill:#B6B6B6;" d="M450.254,484.966H7.678c-5.207,0-8.678-3.471-8.678-8.678V33.712c0-5.207,3.471-8.678,8.678-8.678
			h442.576c5.207,0,8.678,3.471,8.678,8.678v17.356c0,5.207-3.471,8.678-8.678,8.678s-8.678-3.471-8.678-8.678V42.39H16.356v425.22
			h425.22V189.915c0-5.207,3.471-8.678,8.678-8.678s8.678,3.471,8.678,8.678v286.373
			C458.932,481.495,455.461,484.966,450.254,484.966z"/>
		<path style="fill:#B6B6B6;" d="M233.305,346.119c-2.603,0-4.339-0.868-6.075-2.603c-3.471-3.471-3.471-8.678,0-12.149
			L496.247,62.349c3.471-3.471,8.678-3.471,12.149,0c3.471,3.471,3.471,8.678,0,12.149L239.38,343.515
			C237.644,345.251,235.908,346.119,233.305,346.119z"/>
		<path style="fill:#B6B6B6;" d="M233.305,346.119c-2.603,0-4.339-0.868-6.075-2.603L107.475,223.759
			c-3.471-3.471-3.471-8.678,0-12.149c3.471-3.471,8.678-3.471,12.149,0L239.38,331.366c3.471,3.471,3.471,8.678,0,12.149
			C237.644,345.251,235.908,346.119,233.305,346.119z"/>
	</g>
</g>
<g>
</g>
<g>
</g>
<g>
</g>
<g>
</g>
<g>
</g>
<g>
</g>
<g>
</g>
<g>
</g>
<g>
</g>
<g>
</g>
<g>
</g>
<g>
</g>
<g>
</g>
<g>
</g>
<g>
</g>
</svg>
