<?xml version="1.0" encoding="iso-8859-1"?>
<!-- Generator: Adobe Illustrator 19.0.0, SVG Export Plug-In . SVG Version: 6.00 Build 0)  -->
<svg version="1.1" id="Layer_1" xmlns="http://www.w3.org/2000/svg" xmlns:xlink="http://www.w3.org/1999/xlink" x="0px" y="0px"
	 viewBox="0 0 512 512" style="enable-background:new 0 0 512 512;" xml:space="preserve">
<g transform="translate(1 1)">
	<polygon style="fill:#FFFFFF;" points="7.533,502.467 246.467,502.467 246.467,7.533 7.533,7.533 	"/>
	<polygon style="fill:#CCCCCC;" points="263.533,502.467 502.467,502.467 502.467,7.533 263.533,7.533 	"/>
	<polygon style="fill:#E2E3E5;" points="33.133,502.467 476.867,502.467 476.867,7.533 33.133,7.533 	"/>
	<g>
		<path style="fill:#B6B6B6;" d="M502.467,511H7.533C2.413,511-1,507.587-1,502.467V7.533C-1,2.413,2.413-1,7.533-1h494.933
			C507.587-1,511,2.413,511,7.533v494.933C511,507.587,507.587,511,502.467,511z M16.067,493.933h477.867V16.067H16.067V493.933z"/>
		<path style="fill:#B6B6B6;" d="M129.56,388.973c-2.56,0-4.267-0.853-5.973-2.56c-3.413-3.413-3.413-8.533,0-11.947l253.44-253.44
			c3.413-3.413,8.533-3.413,11.947,0c3.413,3.413,3.413,8.533,0,11.947l-253.44,253.44
			C133.827,388.12,132.12,388.973,129.56,388.973z"/>
		<path style="fill:#B6B6B6;" d="M383,388.973c-2.56,0-4.267-0.853-5.973-2.56l-253.44-253.44c-3.413-3.413-3.413-8.533,0-11.947
			s8.533-3.413,11.947,0l253.44,253.44c3.413,3.413,3.413,8.533,0,11.947C387.267,388.12,385.56,388.973,383,388.973z"/>
	</g>
</g>
<g>
</g>
<g>
</g>
<g>
</g>
<g>
</g>
<g>
</g>
<g>
</g>
<g>
</g>
<g>
</g>
<g>
</g>
<g>
</g>
<g>
</g>
<g>
</g>
<g>
</g>
<g>
</g>
<g>
</g>
</svg>
