<?xml version="1.0" encoding="iso-8859-1"?>
<!-- Generator: Adobe Illustrator 19.0.0, SVG Export Plug-In . SVG Version: 6.00 Build 0)  -->
<svg version="1.1" id="Layer_1" xmlns="http://www.w3.org/2000/svg" xmlns:xlink="http://www.w3.org/1999/xlink" x="0px" y="0px"
	 viewBox="0 0 512 512" style="enable-background:new 0 0 512 512;" xml:space="preserve">
<g transform="translate(1 1)">
	<polygon style="fill:#E2E3E5;" points="34.93,502.018 511,502.018 511,142.719 34.93,142.719 	"/>
	<polygon style="fill:#CCCCCC;" points="34.93,502.018 484.053,502.018 484.053,142.719 34.93,142.719 	"/>
	<polygon style="fill:#E2E3E5;" points="43.912,466.088 448.123,466.088 448.123,178.649 43.912,178.649 	"/>
	<path style="fill:#E0E0E0;" d="M166.074,264.881c0,22.456-17.965,41.319-41.319,41.319s-41.319-17.965-41.319-41.319
		s17.965-41.319,41.319-41.319S166.074,241.526,166.074,264.881"/>
	<path style="fill:#F0F0F0;" d="M134.635,264.881c0,22.456-10.779,41.319-23.354,41.319s-22.456-18.863-22.456-41.319
		s10.779-41.319,23.354-41.319S134.635,241.526,134.635,264.881"/>
	<path style="fill:#E0E0E0;" d="M286.439,43.912c0,19.761-16.168,35.93-35.93,35.93s-35.93-16.168-35.93-35.93
		s16.168-35.93,35.93-35.93S286.439,24.151,286.439,43.912"/>
	<path style="fill:#F0F0F0;" d="M259.491,43.912c0,19.761-9.881,35.93-22.456,35.93c-12.575,0-22.456-16.168-22.456-35.93
		s9.881-35.93,22.456-35.93C249.611,7.982,259.491,24.151,259.491,43.912"/>
	<g>
		<path style="fill:#B6B6B6;" d="M448.123,475.07H43.912c-5.389,0-8.982-3.593-8.982-8.982V178.649c0-5.389,3.593-8.982,8.982-8.982
			h404.211c5.389,0,8.982,3.593,8.982,8.982v287.439C457.105,471.477,453.512,475.07,448.123,475.07z M52.895,457.105H439.14
			V187.632H52.895V457.105z"/>
		<path style="fill:#B6B6B6;" d="M124.754,314.284c-27.846,0-50.302-22.456-50.302-50.302s22.456-50.302,50.302-50.302
			s50.302,22.456,50.302,50.302S152.6,314.284,124.754,314.284z M124.754,232.544c-17.965,0-32.337,14.372-32.337,32.337
			s14.372,32.337,32.337,32.337s32.337-14.372,32.337-32.337S142.719,232.544,124.754,232.544z"/>
		<path style="fill:#B6B6B6;" d="M43.912,475.07c-2.695,0-5.389-0.898-7.186-2.695c-3.593-3.593-2.695-8.982,0.898-12.575
			l152.702-134.737c3.593-2.695,8.982-2.695,12.575,0l98.807,98.807c3.593,3.593,3.593,8.982,0,12.575
			c-3.593,3.593-8.982,3.593-12.575,0l-92.519-92.519L50.2,473.274C48.404,474.172,45.709,475.07,43.912,475.07z"/>
		<path style="fill:#B6B6B6;" d="M246.018,389.737c-1.796,0-4.491-0.898-6.288-2.695c-3.593-3.593-3.593-8.982-0.898-12.575
			l94.316-103.298c1.797-1.797,3.593-2.695,6.288-2.695s4.491,0.898,6.288,2.695l107.789,98.807
			c3.593,3.593,3.593,8.982,0.898,12.575c-3.593,3.593-8.982,3.593-12.575,0.898l-100.603-93.418l-88.028,97.011
			C250.509,388.839,248.712,389.737,246.018,389.737z"/>
		<path style="fill:#B6B6B6;" d="M484.053,511H7.982C2.593,511-1,507.407-1,502.018V142.719c0-5.389,3.593-8.982,8.982-8.982h476.07
			c5.389,0,8.982,3.593,8.982,8.982v359.298C493.035,507.407,489.442,511,484.053,511z M16.965,493.035H475.07V151.702H16.965
			V493.035z"/>
		<path style="fill:#B6B6B6;" d="M250.509,88.825c-25.151,0-44.912-19.761-44.912-44.912S225.358-1,250.509-1
			s44.912,19.761,44.912,44.912S275.66,88.825,250.509,88.825z M250.509,16.965c-15.27,0-26.947,11.677-26.947,26.947
			s11.677,26.947,26.947,26.947s26.947-11.677,26.947-26.947S265.779,16.965,250.509,16.965z"/>
		<path style="fill:#B6B6B6;" d="M430.158,151.702H70.86c-3.593,0-7.186-2.695-8.084-5.389c-0.898-3.593,0-7.186,2.695-9.881
			c3.593-4.491,100.604-90.723,153.6-123.958c3.593-2.695,8.982-1.796,11.677,1.796s2.695,8.084,0,11.677
			c-3.593,3.593-7.186,9.881-7.186,17.965c0,15.27,11.677,26.947,26.947,26.947s26.947-11.677,26.947-26.947
			c0-8.084-3.593-14.372-7.186-17.965c-2.695-3.593-2.695-8.084,0-11.677s8.084-4.491,11.677-1.796
			c52.997,33.235,150.007,119.467,154.498,123.06c2.695,2.695,3.593,6.288,2.695,9.881
			C437.344,149.007,433.751,151.702,430.158,151.702z M95.112,133.737h311.691c-26.049-22.456-73.656-62.877-111.382-89.825l0,0
			c0,25.151-19.761,44.912-44.912,44.912s-44.912-19.761-44.912-44.912l0,0C167.87,70.86,120.263,111.281,95.112,133.737z"/>
	</g>
</g>
<g>
</g>
<g>
</g>
<g>
</g>
<g>
</g>
<g>
</g>
<g>
</g>
<g>
</g>
<g>
</g>
<g>
</g>
<g>
</g>
<g>
</g>
<g>
</g>
<g>
</g>
<g>
</g>
<g>
</g>
</svg>
